# xmcd
#
# Track frame offsets: 
#        183
#        12220
#        26443
#        54323
#        73373
#        85410
#        111700
#        134220
#        149343
#        168078
#        176525
#        192460
#        210800
#        236843
#        247315
#        291398
#        303943
#
# Disc length: 4455 seconds
#
# Revision: 8
# Processed by: cddbd v1.5.2PL0 Copyright (c) Steve Scherf et al.
# Submitted via: ExactAudioCopy v1.0b2
#
DISCID=07116511
DTITLE=Various Artist - Essential Classics CD2
DYEAR=1991
DGENRE=Classical
TTITLE0=Chorus and Orchestra of the Deutche Oper, Berlin (Eugen Jocum) /
TTITLE0=O Fortuna ('Carmina Burana', Orff)
TTITLE1=Michel Schwalbe, violin - Berlin Philharmonic Orchestra - Medit
TTITLE1=ation [Extract] ('Thïas', Massenet)
TTITLE2=Berlin Philharmonic Orchestra (Herbert von Karajan) - Ride of 
TTITLE2=the Valkyries ('Der Walkure', Wagner)
TTITLE3=Gothenburg Symphony Orchestra (Neeme Jarvi) - Morning ('Peer G
TTITLE3=ynt', Grieg)
TTITLE4=New York Metropolitan Opera Orchestra (Leonard Bernstein) - Ca
TTITLE4=rmen [Prelude] (Bizet)
TTITLE5=English Concert (Trevor Pinnock) - Canon and Gigue (Pachelbel)
TTITLE6=Chorus and Orchestra of the Deutche Oper, Berlin (Giuseppi Sinop
TTITLE6=oli) - Chorus of the Hebrew Slaves ('Nabucco', Verdi)
TTITLE7=Tamas Vasary, piano - London Symphony Orchestra - Rhapsody on a
TTITLE7=Theme of Paganini [18th Variation] (Rachmaninov)
TTITLE8=London Symphony Orchestra (Garcia Navarro) - Ritual Fire Dance
TTITLE8=('El Amor Brujo', Falla)
TTITLE9=Chicago Symphony Orchestra (Carlo Maria Giulini) - Promenade (
TTITLE9='Pictures at an Exhibition', Mussorgsky)
TTITLE10=Berlin Philharmonic Orchestra (Herbert von Karajan) - Interme
TTITLE10=zzo ('Cavalleria Rusticana', Mascagni)
TTITLE11=Helsinki Radio Symphony Orchestra (Okko Kamu) - Intermezzo ('
TTITLE11=Karelia Suite', Sibelius)
TTITLE12=Berlin Philharmonic Orchestra (Mstislav Rostropovich) - Waltz
TTITLE12=of the Flowers ('The Nutcracker', Tchaikovsky)
TTITLE13=New York Philharmonic Orchestra (Leonard Bernstein) - Fanfare
TTITLE13=for the Common Man (Copland)
TTITLE14=Bavarian Radio Symphony Orchestra (Rafael Kubelik) - Symphony
TTITLE14=No 5 [Adagietto] (Mahler)
TTITLE15=Berlin Philharmonic Orchestra - Ernst Benff Chorus - Dies Irae
TTITLE15=('Requiem', Verdi)
TTITLE16=BBC Symphony Orchestra (Leonard Bernstein) - Pomp and Circums
TTITLE16=tance [March No 1] (Elgar)
EXTD=YEAR: 1991
EXTT0=
EXTT1=
EXTT2=
EXTT3=
EXTT4=
EXTT5=
EXTT6=
EXTT7=
EXTT8=
EXTT9=
EXTT10=
EXTT11=
EXTT12=
EXTT13=
EXTT14=
EXTT15=
EXTT16=
PLAYORDER=
